HIERARCHY
ROOT hip
{
	OFFSET 0.000000 0.000000 0.000000 
	CHANNELS 6 Xposition Yposition Zposition Xrotation Zrotation Yrotation
	JOINT abdomen
	{
		OFFSET 0.000000 3.402643 0.000000 
		CHANNELS 3 Xrotation Zrotation Yrotation
		JOINT chest
		{
			OFFSET 0.000000 8.438565 -0.680529 
			CHANNELS 3 Xrotation Zrotation Yrotation
			JOINT neck
			{
				OFFSET 0.000000 10.207942 -0.272212 
				CHANNELS 3 Xrotation Zrotation Yrotation
				JOINT head
				{
					OFFSET 0.000000 3.130431 0.000000 
					CHANNELS 3 Xrotation Zrotation Yrotation
					End Site
					{
						OFFSET 0.000000 3.130435 0.000000 
					}
				}
			}
			JOINT lCollar
			{
				OFFSET 3.470700 6.669187 -0.816635 
				CHANNELS 3 Yrotation Zrotation Xrotation
				JOINT lShldr
				{
					OFFSET 3.198488 0.000000 0.000000 
					CHANNELS 3 Zrotation Yrotation Xrotation
					JOINT lForeArm
					{
						OFFSET 10.139888 0.000000 0.000000 
						CHANNELS 3 Yrotation Zrotation Xrotation
						JOINT lHand
						{
							OFFSET 8.370511 0.000000 0.000000 
							CHANNELS 3 Zrotation Yrotation Xrotation
							End Site
							{
								OFFSET 4.083176 0.000000 0.000000 
							}
						}
					}
				}
			}
			JOINT rCollar
			{
				OFFSET -3.470700 6.669187 -0.816635 
				CHANNELS 3 Yrotation Zrotation Xrotation
				JOINT rShldr
				{
					OFFSET -3.198488 0.000000 0.000000 
					CHANNELS 3 Zrotation Yrotation Xrotation
					JOINT rForeArm
					{
						OFFSET -10.139888 0.000000 0.000000 
						CHANNELS 3 Yrotation Zrotation Xrotation
						JOINT rHand
						{
							OFFSET -8.370511 0.000000 0.000000 
							CHANNELS 3 Zrotation Yrotation Xrotation
							End Site
							{
								OFFSET -4.083176 0.000000 0.000000 
							}
						}
					}
				}
			}
		}
	}
	JOINT lThigh
	{
		OFFSET 5.308129 -1.633274 1.361059 
		CHANNELS 3 Xrotation Zrotation Yrotation
		JOINT lShin
		{
			OFFSET -2.041588 -20.007561 0.000000 
			CHANNELS 3 Xrotation Zrotation Yrotation
			JOINT lFoot
			{
				OFFSET 0.000000 -19.190928 -1.224953 
				CHANNELS 3 Xrotation Yrotation Zrotation
				End Site
				{
					OFFSET 0.000000 -2.449906 4.627600 
				}
			}
		}
	}
	JOINT rThigh
	{
		OFFSET -5.308129 -1.633274 1.361059 
		CHANNELS 3 Xrotation Zrotation Yrotation
		JOINT rShin
		{
			OFFSET 2.041588 -20.007561 0.000000 
			CHANNELS 3 Xrotation Zrotation Yrotation
			JOINT rFoot
			{
				OFFSET 0.000000 -19.190928 -1.224953 
				CHANNELS 3 Xrotation Yrotation Zrotation
				End Site
				{
					OFFSET 0.000000 -2.449906 4.627600 
				}
			}
		}
	}
}
MOTION
Frames: 8
Frame Time: 0.016667
15.438418 40.693310 -18.428480 6.611330 1.777310 -72.011703 -40.421501 3.955420 -0.912044 34.785198 2.578130 0.625000 25.316006 3.727098 3.059098 5.703130 6.210940 2.833090 2.000000 -2.000000 0.000000 92.523499 -157.787994 2.485490 124.955002 1.297840 0.164641 -1.395640 3.371390 -143.606995 -2.000000 2.000000 0.000000 84.084000 5.998510 -166.524002 -118.265999 -1.279500 0.144213 1.376060 -3.361640 -149.212006 -29.000656 6.224369 -12.276620 56.723312 3.601761 7.087506 -11.895647 -7.097538 1.252774 -15.141851 -1.558382 -2.739394 46.336460 -3.992214 -6.419794 -16.322376 10.039506 4.632478 
15.174646 40.573231 -18.705282 6.074220 1.718750 -73.896500 -40.339401 3.846900 -0.589072 34.921902 2.441410 0.732838 25.534275 4.010193 2.908687 5.839840 6.308590 2.950290 2.000000 -2.000000 0.000000 92.598999 -158.093994 1.922890 125.422997 1.297840 0.164641 -1.395630 3.361630 -143.968994 -2.000000 2.000000 0.000000 84.464897 6.832580 -165.464005 -118.412003 -1.279500 0.144213 1.376070 -3.371410 -147.492996 -29.049410 6.129391 -12.275454 58.779659 3.380061 7.286749 -10.748558 -6.218357 1.582325 -15.361026 -1.993711 -2.741033 47.099693 -3.917864 -6.482973 -16.687069 11.380424 5.269531 
14.887175 40.777519 -18.757967 5.527340 1.591800 -75.907898 -40.357101 3.832070 -0.322764 34.921902 2.128910 0.849972 25.889366 3.998548 3.452713 5.966800 6.181640 3.077220 2.000000 -2.000000 0.000000 92.304298 -159.110001 1.471730 125.823997 1.297840 0.164641 -1.395640 3.371390 -143.011993 -2.000000 2.000000 0.000000 84.083099 7.131980 -164.429001 -119.339996 -1.289830 0.135047 1.376060 -3.361640 -147.746994 -29.122608 5.878800 -11.570838 60.521690 3.114287 7.434875 -6.374530 -5.544381 2.081883 -14.968573 -2.302816 -1.851926 46.483276 -4.089375 -6.371721 -15.871683 12.270399 5.483115 
14.599924 40.981804 -18.810543 4.980470 1.455080 -77.919701 -40.394100 3.816100 -0.087319 34.921902 1.816410 0.966797 26.235201 3.955762 3.992652 6.103520 6.054690 3.204150 2.000000 -2.000000 0.000000 91.990601 -160.125000 0.996798 126.213997 1.297840 0.164641 -1.395640 3.371390 -142.054001 -2.000000 2.000000 0.000000 83.701103 7.441160 -163.384995 -120.267998 -1.289830 0.135047 1.376060 -3.361640 -148.011002 -29.170622 5.651603 -10.871379 62.282753 2.834264 7.592541 -2.077377 -4.820776 2.509750 -14.553902 -2.596004 -0.954139 45.690632 -4.247190 -6.263569 -14.944189 13.191145 5.671391 
14.308632 41.387741 -18.672253 4.648440 1.455080 -79.570099 -40.463402 3.883520 -0.018732 34.931599 1.474610 1.035410 26.557329 3.828138 4.623199 6.230470 5.878910 3.321310 2.000000 -2.000000 0.000000 91.599297 -161.391998 1.032180 126.282997 1.297840 0.164641 -1.395640 3.371390 -141.341995 -2.000000 2.000000 0.000000 82.800903 7.488070 -162.843994 -121.176003 -1.289830 0.135047 1.376060 -3.361640 -148.518997 -29.832521 5.182345 -10.607067 63.416962 2.547814 7.748621 3.596791 -4.877110 2.865904 -13.971201 -2.783813 -0.222167 44.091892 -4.466330 -6.050478 -13.346073 13.039328 5.308824 
14.017451 41.793674 -18.533854 4.316410 1.445310 -81.230202 -40.542198 3.938380 0.044139 34.941399 1.113280 1.093940 26.889637 3.712852 5.248682 6.347660 5.703130 3.438470 2.000000 -2.000000 0.000000 91.209000 -162.647995 1.056850 126.341003 1.297840 0.164641 -1.395640 3.371390 -140.638000 -2.000000 2.000000 0.000000 81.890701 7.544470 -162.302994 -122.073997 -1.289830 0.135047 1.376060 -3.361640 -149.035995 -30.432404 4.731417 -10.344737 64.607964 2.257493 7.883654 9.182989 -4.922770 3.215377 -13.296502 -2.964754 0.522424 42.377407 -4.714274 -5.801404 -11.727245 12.843013 4.952049 
13.696613 42.374313 -18.253231 3.427730 1.523440 -83.007797 -40.502899 3.977240 0.175583 35.078098 0.898438 1.181640 27.200583 3.650686 5.920475 6.474610 5.556640 3.584870 2.000000 -2.000000 0.000000 91.303902 -164.009995 1.276090 126.086998 1.297840 0.164641 -1.395640 3.371390 -140.550995 -2.000000 2.000000 0.000000 80.887901 7.460930 -162.434006 -122.582001 -1.289830 0.135047 1.376060 -3.361640 -148.362000 -30.671234 3.478482 -10.025763 64.421410 2.111746 7.955148 13.500302 -6.455680 3.697913 -12.941365 -3.915432 1.711067 40.989277 -4.997914 -5.558273 -8.941067 12.392052 4.214900 
13.375888 42.955093 -17.972610 2.539060 1.562500 -84.785103 -40.463100 4.006970 0.310454 35.214802 0.693359 1.250120 27.512247 3.578855 6.587939 6.601560 5.410160 3.731390 2.000000 -2.000000 0.000000 91.399597 -165.371994 1.513820 125.834000 1.297840 0.164641 -1.395650 3.381160 -140.462997 -2.000000 2.000000 0.000000 79.885101 7.377480 -162.563995 -123.089996 -1.289830 0.135047 1.376060 -3.361640 -147.697998 -30.986433 2.254548 -9.703792 64.378677 2.001659 7.995701 17.790308 -7.956317 4.304647 -12.566913 -4.842277 2.933638 39.508560 -5.277657 -5.324181 -6.098609 11.909611 3.526396 
